<?xml version="1.0" standalone="no"?>
<!DOCTYPE svg PUBLIC "-//W3C//DTD SVG 20010904//EN"
 "http://www.w3.org/TR/2001/REC-SVG-20010904/DTD/svg10.dtd">
<svg version="1.0" xmlns="http://www.w3.org/2000/svg"
 width="500.000000pt" height="500.000000pt" viewBox="0 0 500.000000 500.000000"
 preserveAspectRatio="xMidYMid meet">
<metadata>
Created by potrace 1.16, written by Peter Selinger 2001-2019
</metadata>
<g transform="translate(0.000000,500.000000) scale(0.100000,-0.100000)"
fill="#000000" stroke="none">
<path d="M4516 4821 c-3 -4 -24 -11 -46 -15 -22 -3 -40 -11 -40 -16 0 -6 -5
-10 -11 -10 -22 0 -108 -89 -116 -120 -3 -14 -11 -28 -17 -32 -14 -9 -14 -187
1 -196 5 -4 13 -16 17 -27 3 -11 17 -33 31 -49 14 -16 25 -33 25 -37 0 -4 10
-11 23 -15 12 -4 24 -10 27 -13 31 -41 197 -55 270 -24 22 10 40 21 40 25 0 5
6 8 13 8 7 0 25 12 39 28 22 24 36 46 69 114 12 24 11 154 0 176 -5 9 -16 33
-25 52 -15 36 -86 110 -106 110 -5 0 -10 4 -10 10 0 5 -18 13 -40 16 -22 4
-43 11 -46 15 -3 5 -25 9 -49 9 -24 0 -46 -4 -49 -9z"/>
<path d="M2170 4688 c0 -5 -8 -8 -19 -8 -10 0 -22 -10 -27 -22 -4 -13 -10
-113 -13 -223 l-6 -200 -25 -3 c-14 -2 -29 -7 -35 -12 -5 -4 -30 -11 -55 -15
-25 -4 -63 -16 -84 -26 -22 -11 -47 -19 -55 -19 -9 0 -27 -6 -41 -13 -14 -7
-49 -22 -77 -32 -29 -10 -53 -23 -53 -27 0 -4 -6 -8 -14 -8 -17 0 -110 -45
-128 -63 -23 -21 -89 -51 -109 -50 -11 1 -83 65 -161 142 -80 81 -148 141
-159 141 -22 0 -409 -384 -409 -406 0 -8 51 -65 113 -128 180 -182 208 -216
179 -216 -5 0 -17 -17 -28 -37 -10 -21 -21 -40 -25 -43 -12 -11 -69 -130 -69
-145 0 -8 -4 -15 -10 -15 -5 0 -10 -6 -10 -14 0 -7 -7 -27 -15 -42 -8 -16 -15
-37 -15 -46 0 -10 -4 -18 -9 -18 -5 0 -12 -20 -15 -45 -4 -25 -11 -45 -17 -45
-5 0 -9 -11 -9 -24 0 -14 -4 -27 -9 -30 -5 -4 -12 -25 -16 -48 -4 -22 -14 -56
-21 -74 l-14 -34 -188 0 c-169 0 -190 -2 -219 -20 l-33 -20 0 -278 0 -278 34
-12 c23 -9 94 -12 215 -12 99 1 185 -1 191 -5 5 -3 10 -15 10 -25 0 -10 5 -22
10 -25 6 -3 10 -15 10 -25 0 -19 23 -97 40 -135 5 -11 12 -35 15 -52 4 -18 11
-33 16 -33 5 0 9 -9 9 -20 0 -19 29 -90 41 -100 3 -3 9 -17 13 -33 6 -23 30
-68 84 -152 6 -11 15 -27 19 -35 4 -8 11 -18 16 -21 15 -11 -21 -54 -153 -184
-127 -125 -144 -149 -128 -178 5 -9 88 -97 186 -194 154 -154 181 -177 208
-177 17 0 38 7 47 14 8 8 72 70 140 138 69 67 131 122 139 122 14 0 90 -38 98
-49 7 -9 75 -41 88 -41 6 0 12 -4 14 -8 4 -10 131 -72 147 -72 6 0 19 -4 29
-9 45 -24 92 -41 114 -41 13 0 29 -5 35 -11 5 -5 36 -13 67 -16 31 -3 56 -10
56 -14 0 -5 6 -9 13 -9 24 0 38 -108 36 -273 -3 -130 0 -160 12 -168 7 -5 139
-9 291 -9 329 0 302 -14 297 154 -2 61 -3 151 -1 199 2 79 4 89 22 94 11 3 20
9 20 13 0 4 29 11 65 15 36 3 65 11 65 16 0 5 10 9 23 9 13 0 32 7 43 15 10 8
29 15 42 15 12 0 22 4 22 9 0 5 18 11 40 15 22 3 40 11 40 16 0 6 11 10 25 10
14 0 25 4 25 9 0 5 12 12 28 16 15 3 34 12 42 19 8 7 30 19 48 27 17 8 32 17
32 21 0 5 6 8 14 8 8 0 21 7 30 15 8 8 28 18 43 21 26 5 41 -6 165 -130 75
-75 141 -136 147 -136 6 0 11 -4 11 -10 0 -29 43 4 172 133 79 78 157 153 174
167 16 14 37 36 47 50 35 50 25 66 -118 209 -153 152 -155 158 -105 239 17 27
30 54 30 61 0 6 3 11 8 11 8 0 42 73 42 90 0 6 4 10 9 10 5 0 12 14 16 30 4
17 11 30 16 30 5 0 9 6 9 14 0 7 7 27 15 42 8 16 15 39 15 52 0 12 4 22 9 22
5 0 11 12 14 28 10 47 29 116 38 134 5 10 9 29 9 43 0 43 28 49 241 49 238 1
236 0 224 104 -7 60 -7 172 0 357 2 68 -11 121 -34 132 -9 4 -108 10 -221 13
l-205 5 -3 30 c-2 17 -8 34 -13 40 -5 5 -9 19 -9 32 0 22 -22 90 -40 124 -5 9
-12 33 -15 53 -4 20 -11 39 -16 42 -5 3 -9 14 -9 25 0 10 -4 19 -10 19 -5 0
-10 8 -10 18 0 22 -90 202 -102 202 -4 0 -8 8 -8 19 0 10 -7 24 -15 31 -24 20
-18 64 13 93 15 14 32 32 39 39 7 7 18 18 25 24 7 6 25 24 40 40 15 16 52 54
82 84 91 89 92 87 -128 306 -118 119 -191 184 -204 184 -26 0 -53 -23 -193
-164 -99 -101 -118 -116 -146 -116 -18 0 -33 4 -33 10 0 5 -11 12 -25 16 -14
3 -25 10 -25 15 0 5 -6 9 -14 9 -8 0 -16 4 -18 8 -5 13 -87 52 -108 52 -11 0
-20 3 -20 8 0 9 -74 42 -95 42 -8 0 -15 4 -15 10 0 5 -22 12 -50 16 -27 4 -50
10 -50 15 0 5 -9 9 -19 9 -11 0 -22 4 -25 9 -3 5 -27 12 -53 16 -27 4 -52 11
-58 15 -5 4 -21 10 -35 12 l-25 3 -5 200 c-3 110 -9 209 -13 220 -16 41 -51
46 -306 43 -133 -1 -241 -6 -241 -10z"/>
<path d="M310 674 c-60 -22 -119 -72 -149 -124 -23 -41 -26 -150 -5 -196 20
-44 78 -104 100 -104 8 0 14 -4 14 -10 0 -5 9 -10 19 -10 11 0 23 -5 26 -10 8
-13 89 -13 113 -1 9 5 33 16 52 25 40 17 74 52 85 87 4 13 12 27 17 30 6 4 11
40 11 82 1 72 -16 129 -48 162 -39 40 -102 68 -159 71 -34 2 -68 1 -76 -2z"/>
</g>
</svg>
